<?xml version="1.0" encoding="UTF-8" standalone="no"?>
<!-- Created with Inkscape (http://www.inkscape.org/) -->

<svg
   width="91.724327mm"
   height="101.13195mm"
   viewBox="0 0 91.724327 101.13195"
   version="1.1"
   id="svg1"
   sodipodi:docname="ssi logo.svg"
   inkscape:version="1.3.2 (091e20ef0f, 2023-11-25, custom)"
   xml:space="preserve"
   xmlns:inkscape="http://www.inkscape.org/namespaces/inkscape"
   xmlns:sodipodi="http://sodipodi.sourceforge.net/DTD/sodipodi-0.dtd"
   xmlns="http://www.w3.org/2000/svg"
   xmlns:svg="http://www.w3.org/2000/svg"><sodipodi:namedview
     id="namedview1"
     pagecolor="#505050"
     bordercolor="#eeeeee"
     borderopacity="1"
     inkscape:showpageshadow="0"
     inkscape:pageopacity="0"
     inkscape:pagecheckerboard="0"
     inkscape:deskcolor="#505050"
     inkscape:document-units="mm"
     inkscape:zoom="0.90509668"
     inkscape:cx="428.13106"
     inkscape:cy="467.35339"
     inkscape:window-width="1920"
     inkscape:window-height="1014"
     inkscape:window-x="0"
     inkscape:window-y="0"
     inkscape:window-maximized="1"
     inkscape:current-layer="layer4"
     showguides="true" /><defs
     id="defs1" /><path
     style="display:none;fill:#ffdd55;stroke-width:0.146163"
     d="M 61.750342,76.21798 V 53.355469 l 14.709862,4.903558 14.709862,4.903557 -0.08442,3.306111 c -0.09172,3.591926 -0.314304,5.412497 -0.99138,8.108659 -2.404465,9.574713 -9.810102,17.627743 -20.831493,22.652559 -3.073238,1.401135 -4.70045,1.85058 -6.699996,1.85058 H 61.75034 Z"
     id="path10" /><path
     style="display:none;fill:#ffdd55;stroke-width:0.146163"
     d="m 32.272121,56.360178 c 0.153053,-11.036969 0.371792,-12.262876 2.428348,-13.609444 1.740324,-1.13951 4.300964,-2.166625 12.141245,-4.870053 9.711589,-3.348678 11.590983,-3.912595 13.59734,-4.07992 l 1.165124,-0.09717 v 9.801669 9.801667 l -14.71287,4.90456 -14.712871,4.90456 z"
     id="path11" /><g
     inkscape:groupmode="layer"
     id="layer4"
     inkscape:label="Layer 2"
     transform="translate(-34.351846,-83.915609)"><g
       style="fill:none"
       id="g19"
       transform="matrix(4.7038112,0,0,4.7038112,23.768273,78.035843)"><path
         opacity="0.5"
         d="M 3,10.4167 C 3,7.21907 3,5.62028 3.37752,5.08241 3.75503,4.54454 5.25832,4.02996 8.26491,3.00079 L 8.83772,2.80472 C 10.405,2.26824 11.1886,2 12,2 c 0.8114,0 1.595,0.26824 3.1623,0.80472 l 0.5728,0.19607 C 18.7417,4.02996 20.245,4.54454 20.6225,5.08241 21,5.62028 21,7.21907 21,10.4167 c 0,0.4829 0,1.0067 0,1.5747 0,5.638 -4.239,8.3741 -6.8986,9.5359 C 13.38,21.8424 13.0193,22 12,22 10.9807,22 10.62,21.8424 9.89856,21.5273 7.23896,20.3655 3,17.6294 3,11.9914 3,11.4234 3,10.8996 3,10.4167 Z"
         stroke="#1c274c"
         stroke-width="1.5"
         id="path1"
         style="opacity:1;stroke:#000000" /><path
         d="m 3,11 9,-3 9,3"
         stroke="#1c274c"
         stroke-width="1.5"
         stroke-linecap="round"
         id="path2"
         style="stroke:#000000" /><path
         d="M 12,2 V 21.5"
         stroke="#1c274c"
         stroke-width="1.5"
         stroke-linecap="round"
         id="path3"
         style="display:inline;fill:#000000;stroke:#000000"
         inkscape:label="path3" /><path
         style="fill:#000080;stroke:#000000;stroke-width:0.195312"
         d="m 182.9116,472.02149 c 0.003,-29.79105 0.94943,-44.64828 3.18372,-49.98999 0.96149,-2.29872 9.82561,-6.66438 25.25593,-12.43878 12.4113,-4.6446 58.858,-20.61998 69.36455,-23.85798 3.4206,-1.05419 9.56639,-2.72693 10.01899,-2.72693 0.115,0 0.16573,12.49731 0.13491,33.23564 l -0.0494,33.23564 -53.80832,17.93623 c -29.59458,9.86494 -53.87437,17.93624 -53.95508,17.93624 -0.0807,0 -0.14611,-5.99853 -0.14531,-13.33007 z"
         id="path30"
         transform="matrix(0.06925239,0,0,0.06925239,-8.9061084,-23.672966)" /><path
         style="fill:#000080;stroke:#000000;stroke-width:0.276214"
         d="m 313.10914,472.17148 c -1.05616,0.64375 -0.33877,2.31426 -0.60356,3.35539 -0.33038,39.16994 -0.13859,78.34281 -0.18949,117.51395 0.0802,17.85969 -0.14956,35.7256 0.25387,53.58114 -0.13537,0.86434 0.34372,1.98648 1.38616,1.52294 8.83525,-2.14579 17.00102,-6.34658 25.12363,-10.32055 23.72258,-12.05567 45.56816,-28.82881 60.71384,-50.93892 14.36917,-20.64682 21.58236,-45.86528 21.51305,-70.93787 -0.0984,-2.58053 0.23079,-5.25847 -0.17155,-7.77336 -35.9105,-12.05886 -71.88935,-23.96044 -107.81933,-35.97898 l -0.20014,-0.0243 z"
         id="path31"
         transform="matrix(0.06925239,0,0,0.06925239,-8.9061084,-23.672966)" /><path
         style="fill:#ffd42a;stroke:#000000;stroke-width:0.390625"
         d="m 312.7655,382.75757 c -0.4205,8.51135 -0.0581,17.19655 -0.17929,25.77438 0,13.62814 0,27.25627 0,40.8844 2.77452,1.7685 6.47372,2.28196 9.6038,3.56787 32.71848,10.88214 65.37947,21.9438 98.16293,32.62598 1.59106,-0.3763 0.71095,-2.81954 1.02386,-4.00085 -0.16589,-16.90913 0.009,-33.86558 -1.48773,-50.72327 -0.66669,-3.90186 -0.44131,-8.90185 -4.30069,-11.22818 -10.39789,-6.31394 -22.13032,-9.9732 -33.47039,-14.19656 -21.25395,-7.35846 -42.42952,-14.98728 -63.93392,-21.58941 -1.77631,-0.39813 -3.61326,-1.17531 -5.41857,-1.11436 z"
         id="path32"
         transform="matrix(0.06925239,0,0,0.06925239,-8.9061084,-23.672966)" /><path
         style="fill:#ffd42a;stroke:#000000;stroke-width:0.390625"
         d="m 290.66238,472.24579 c -35.9375,11.97968 -71.875,23.95935 -107.8125,35.93903 -0.77144,3.00375 -0.1646,6.46646 -0.31662,9.65728 0.24287,24.37606 7.49075,48.72493 21.39169,68.82146 7.58395,11.36518 17.56026,20.88922 27.76538,29.87147 13.71969,10.97278 28.97727,19.9372 45.10812,26.87428 4.42516,1.72921 8.79181,4.16409 13.55876,4.66351 1.2278,-1.36156 0.43158,-3.69019 0.76303,-5.38855 0.39707,-48.98126 0.11093,-97.96634 0.1998,-146.9491 -0.12755,-7.78816 0.25518,-15.69385 -0.1915,-23.40851 -0.14577,0.28153 -0.31423,-0.1649 -0.46616,-0.0809 z"
         id="path33"
         transform="matrix(0.06925239,0,0,0.06925239,-8.9061084,-23.672966)" /></g></g><g
     inkscape:groupmode="layer"
     id="layer3"
     inkscape:label="dog"
     style="display:inline"
     transform="matrix(1.1158981,0,0,1.1158981,-43.060761,-100.36612)"><g
       style="fill:#000000"
       id="g12"
       transform="matrix(0.11668311,0,0,0.11668311,52.181392,107.99617)"
       inkscape:label="g12"><g
         id="g6">
	<path
   d="m 302.542,210.819 c -3.563,-3.465 -9.261,-3.386 -12.727,0.177 -3.466,3.563 -3.387,9.261 0.177,12.727 2.705,2.63 4.833,5.749 6.321,9.261 1.476,3.491 2.225,7.191 2.225,10.997 0,15.599 -12.691,28.29 -28.29,28.29 h -8.336 c -7.105,0 -13.188,-4.414 -15.681,-10.64 13.594,-3.59 23.469,-14.14 23.469,-26.568 0,-14.852 -13.222,-24.449 -33.684,-24.449 -20.462,0 -33.684,9.597 -33.684,24.449 0,12.427 9.875,22.978 23.469,26.568 -2.493,6.226 -8.576,10.64 -15.681,10.64 h -8.336 c -15.599,0 -28.29,-12.69 -28.29,-28.29 0,-3.806 0.749,-7.506 2.221,-10.989 1.492,-3.52 3.62,-6.639 6.325,-9.269 3.563,-3.465 3.643,-9.164 0.177,-12.727 -3.466,-3.563 -9.164,-3.643 -12.727,-0.177 -4.433,4.311 -7.914,9.407 -10.351,15.155 -2.418,5.722 -3.645,11.78 -3.645,18.006 0,21.843 15.213,40.188 35.596,45.029 10.771,13.791 27.289,21.923 44.92,21.923 17.637,0 34.159,-8.133 44.93,-21.923 20.383,-4.841 35.596,-23.186 35.596,-45.029 0,-6.227 -1.227,-12.285 -3.649,-18.015 -2.432,-5.739 -5.913,-10.835 -10.345,-15.146 z m -82.209,24.243 c 0,-4.431 8.13,-6.449 15.684,-6.449 7.554,0 15.684,2.018 15.684,6.449 0,4.674 -6.441,9.882 -15.684,9.882 -9.243,0 -15.684,-5.208 -15.684,-9.882 z m -1.189,54.019 c 6.593,-1.767 12.424,-5.415 16.872,-10.34 4.448,4.925 10.278,8.573 16.871,10.34 -5.192,2.491 -10.938,3.852 -16.875,3.852 -5.934,-10e-4 -11.678,-1.361 -16.868,-3.852 z"
   id="path1-3" />
	<path
   d="m 463.291,194.321 -22.35,-68.79 C 430.498,93.385 411.293,65.188 385.331,43.721 384.517,38.147 383.413,32.464 381.917,26.859 378.974,15.833 370.67,7.374 359.707,4.231 348.822,1.111 337.391,3.858 329.128,11.58 c -0.191,0.178 -0.379,0.36 -0.569,0.539 C 310.402,6.02 291.467,2.922 272.182,2.922 h -72.33 c -20.492,0 -40.556,3.487 -59.723,10.356 -1.369,-1.033 -2.751,-2.048 -4.141,-3.03 C 126.749,3.726 115.05,2.563 104.693,7.14 94.26,11.749 87.188,21.262 85.776,32.587 85.245,36.842 84.933,41.111 84.786,45.324 59.812,66.583 41.277,94.217 31.092,125.531 l -22.35,68.79 c -11.656,35.872 -11.656,73.792 -0.001,109.664 11.655,35.872 33.946,66.551 64.461,88.718 l 58.52,42.52 c 30.511,22.169 66.576,33.887 104.295,33.887 37.719,0 73.784,-11.718 104.295,-33.887 l 58.52,-42.52 c 30.512,-22.169 52.801,-52.847 64.457,-88.718 11.656,-35.873 11.657,-73.794 0.002,-109.664 z m -75.04,183.82 -58.52,42.52 c -56.053,40.729 -131.376,40.729 -187.429,0 L 83.781,378.141 C 27.725,337.418 4.448,265.782 25.861,199.883 L 48.21,131.096 c 7.601,-23.369 20.379,-44.455 37.341,-61.877 1.632,17.6 5.019,30.698 5.249,31.572 1.063,4.039 4.707,6.709 8.695,6.709 0.757,0 1.526,-0.096 2.292,-0.297 4.805,-1.261 7.679,-6.181 6.421,-10.987 -0.083,-0.316 -8.239,-31.98 -4.571,-61.401 0.623,-4.99 3.736,-9.18 8.33,-11.209 4.584,-2.026 9.556,-1.534 13.64,1.349 16.505,11.652 32.603,28.798 32.843,29.054 3.392,3.634 9.087,3.831 12.721,0.439 3.633,-3.392 3.83,-9.087 0.438,-12.72 -0.419,-0.449 -6.496,-6.932 -15.14,-14.798 14.066,-3.987 28.6,-6.006 43.383,-6.006 h 72.33 c 14.469,0 28.718,1.939 42.52,5.765 -9.398,10.81 -16.159,20.357 -16.567,20.935 -2.864,4.063 -1.893,9.677 2.169,12.542 4.062,2.865 9.678,1.892 12.542,-2.17 0.136,-0.192 13.733,-19.396 28.573,-33.263 3.652,-3.413 8.51,-4.578 13.328,-3.197 4.827,1.384 8.483,5.11 9.78,9.968 7.647,28.646 3.887,61.126 3.849,61.445 -0.598,4.935 2.918,9.419 7.853,10.017 0.367,0.044 0.732,0.066 1.093,0.066 4.487,0 8.371,-3.352 8.923,-7.919 0.094,-0.775 1.278,-10.894 1.095,-25.01 16.541,17.243 29.01,37.991 36.482,60.992 l 22.35,68.79 c 21.411,65.892 -1.866,137.528 -57.921,178.256 z"
   id="path2-6" />
	<path
   d="m 151.142,60.834 c -0.049,-0.053 -5.015,-5.34 -12.062,-11.855 -4.696,-4.342 -11.459,-5.37 -17.228,-2.622 -5.776,2.752 -9.242,8.659 -8.829,15.05 1.146,17.703 4.824,32.141 4.86,32.279 1.07,4.026 4.703,6.679 8.683,6.679 0.753,0 1.519,-0.095 2.281,-0.294 4.793,-1.249 7.673,-6.148 6.448,-10.947 -0.028,-0.111 -2.448,-9.693 -3.773,-22.51 3.937,3.821 6.453,6.495 6.487,6.531 3.399,3.624 9.092,3.808 12.718,0.411 3.628,-3.399 3.814,-9.095 0.415,-12.722 z"
   id="path3-7" />
	<path
   d="m 348.06,45.417 c -6.091,-1.935 -12.648,0.007 -16.707,4.947 -6.175,7.515 -10.302,13.348 -10.343,13.406 -2.865,4.058 -1.898,9.666 2.157,12.534 4.054,2.869 9.669,1.906 12.542,-2.145 0.028,-0.04 2.15,-3.026 5.535,-7.355 0.431,12.799 -0.651,22.659 -0.672,22.838 -0.564,4.933 2.974,9.392 7.908,9.963 0.352,0.041 0.7,0.06 1.045,0.06 4.508,0 8.398,-3.38 8.929,-7.967 0.017,-0.147 1.688,-14.92 0.406,-32.578 -0.463,-6.387 -4.703,-11.765 -10.8,-13.703 z"
   id="path4-5" />
	<path
   d="m 158.352,185.791 c 5.024,3.316 10.21,1.102 13.308,-0.222 1.595,-0.682 3.402,-1.454 4.596,-1.454 1.194,0 3.002,0.772 4.597,1.454 1.9,0.812 4.586,1.959 7.539,1.959 1.86,0 3.827,-0.456 5.77,-1.738 2.282,-1.507 5.003,-4.583 5.003,-10.675 0,-12.632 -10.276,-22.908 -22.908,-22.908 -12.632,0 -22.908,10.276 -22.908,22.908 -10e-4,6.094 2.72,9.169 5.003,10.676 z"
   id="path5" />
	<path
   d="m 294.239,152.208 c -12.632,0 -22.908,10.276 -22.908,22.908 0,6.093 2.721,9.168 5.003,10.675 1.943,1.282 3.909,1.738 5.77,1.738 2.952,0 5.639,-1.147 7.539,-1.959 1.595,-0.681 3.402,-1.454 4.597,-1.454 1.195,0 3.001,0.772 4.596,1.454 3.097,1.324 8.284,3.539 13.308,0.222 2.283,-1.507 5.004,-4.583 5.004,-10.675 -0.001,-12.633 -10.277,-22.909 -22.909,-22.909 z"
   id="path6" />
</g></g><path
       style="fill:#f9f9f9;stroke-width:0.390625"
       d="m 293.96642,606.61082 c -10.0341,-1.13275 -20.89366,-4.85531 -29.12267,-9.98297 -4.29934,-2.67901 -29.97808,-21.36206 -34.7391,-25.27509 -9.31901,-7.65918 -17.07784,-19.12306 -21.10718,-31.18641 -3.9477,-11.81895 -4.66458,-24.06612 -2.12744,-36.34514 1.04316,-5.04861 12.31679,-39.69727 14.56925,-44.77752 2.75888,-6.22244 7.04232,-12.8226 11.57741,-17.83914 l 1.77146,-1.95952 0.66548,4.69389 c 0.36602,2.58164 0.97619,5.91949 1.35593,7.41744 0.58847,2.32131 0.89236,2.85965 2.05763,3.64508 1.81264,1.22178 3.68432,0.95741 5.21045,-0.73596 1.30522,-1.44826 1.29736,-1.96428 -0.15124,-9.92954 -0.76982,-4.23294 -0.92637,-6.41092 -0.94059,-13.08594 -0.015,-7.06435 0.0692,-8.1813 0.71469,-9.48035 1.25591,-2.52731 4.30411,-3.94676 7.01461,-3.26647 1.47335,0.36979 7.74476,5.39193 12.56832,10.06472 2.38941,2.31471 4.84193,4.39774 5.45003,4.62894 2.45196,0.93223 5.28998,-1.16849 5.28998,-3.91568 0,-1.69156 -1.29917,-3.44987 -5.19972,-7.03738 l -2.37804,-2.18719 4.08184,-0.84682 c 6.946,-1.441 10.4764,-1.62537 31.03498,-1.62081 20.64611,0.005 24.64861,0.23525 31.32837,1.80547 l 2.81275,0.6612 -1.86626,2.17922 c -1.02644,1.19857 -2.77557,3.39195 -3.88696,4.87419 -1.72385,2.29906 -2.02071,2.94906 -2.02071,4.42458 0,1.39083 0.22364,1.95325 1.14183,2.87143 1.21583,1.21584 3.25022,1.53649 4.72857,0.7453 0.4075,-0.21809 2.44615,-2.54719 4.53033,-5.17578 2.08418,-2.62859 5.3903,-6.3897 7.34693,-8.35803 3.92467,-3.94811 5.21126,-4.53953 8.03504,-3.6935 2.2324,0.66884 3.71586,2.61533 4.44866,5.8372 1.27993,5.62744 1.54535,8.68267 1.57463,18.12527 l 0.0299,9.65895 0.99756,0.9977 c 1.37757,1.37777 3.34678,1.61607 4.96921,0.60134 1.76648,-1.10483 2.07287,-2.17518 2.32761,-8.13128 0.25885,-6.052 0.0311,-6.01634 4.22286,-0.66101 6.01319,7.68227 8.99503,13.76936 13.57859,27.7191 9.41588,28.65657 9.96358,30.55131 10.83689,37.48941 0.69485,5.52037 0.27791,17.26845 -0.79059,22.27622 -3.37465,15.81613 -12.3033,30.59477 -24.40432,40.39385 -3.54576,2.87127 -28.84108,21.24777 -32.49965,23.61029 -8.02124,5.17972 -18.40648,9.08094 -27.67566,10.39637 -4.38051,0.62165 -13.44068,0.81702 -17.36171,0.37437 z m 15.69825,-62.55641 c 3.74387,-1.4022 6.70748,-3.26915 9.44514,-5.95005 1.5438,-1.51178 3.00757,-2.54446 4.18389,-2.95169 8.06372,-2.79158 13.62036,-10.67853 13.62036,-19.33236 0,-5.22134 -1.95686,-10.33399 -5.26101,-13.74534 C 329.80439,500.16633 329.50059,500 327.86319,500 c -2.11722,0 -3.67742,1.27655 -4.06133,3.32296 -0.27517,1.46676 0.0954,2.29618 2.23517,5.00324 3.03138,3.83497 3.42221,8.76354 1.04815,13.21773 -1.44319,2.70771 -2.8225,3.98159 -5.79612,5.35313 -2.51087,1.1581 -7.74528,1.5941 -10.43263,0.86899 -1.71488,-0.46272 -4.41218,-2.66075 -4.40965,-3.59342 8e-4,-0.2969 0.80491,-0.87026 1.78691,-1.27414 6.04142,-2.48473 9.24814,-8.60504 7.52391,-14.36003 -1.8385,-6.13637 -12.08978,-9.39972 -21.11151,-6.72056 -5.24446,1.55744 -8.25488,5.16981 -8.27347,9.92782 -0.0184,4.69873 2.93653,8.87126 7.76166,10.96006 1.1778,0.50987 2.14445,1.12631 2.14812,1.36986 0.0113,0.74833 -2.93155,3.14588 -4.49445,3.66168 -0.9494,0.31333 -2.74937,0.42107 -5.03152,0.30114 -5.65503,-0.29715 -9.19553,-2.43402 -11.63905,-7.02476 -0.73986,-1.38999 -0.89303,-2.28076 -0.89303,-5.19339 0,-3.89815 0.62281,-5.57842 3.17522,-8.5664 C 280.11524,504.0748 278.56108,500 274.63285,500 c -1.62118,0 -1.95977,0.17256 -3.50696,1.7873 -6.2181,6.48957 -7.19696,17.43622 -2.23542,24.99869 2.57804,3.92948 5.92872,6.66841 10.01578,8.18717 1.25179,0.46517 2.96435,1.66174 4.76927,3.33233 3.13483,2.90152 7.74154,5.51354 11.30745,6.41137 1.57989,0.39779 3.78593,0.53611 7.16547,0.44929 4.06458,-0.10442 5.3241,-0.29071 7.51623,-1.11174 z m -36.78362,-53.83165 2.01154,-0.79288 2.11914,0.79288 c 2.50492,0.93721 4.06991,1.00099 5.56685,0.22689 3.63759,-1.88107 3.43252,-8.48002 -0.38206,-12.2946 -5.34798,-5.34797 -14.84641,-3.0845 -16.97336,4.04476 -1.10846,3.71536 -0.43814,6.63367 1.84318,8.02456 1.64044,1.00014 3.27438,0.99969 5.81471,-0.002 z m 52.01731,0.0161 c 2.07213,-0.77527 2.08004,-0.77527 4.12041,0 2.5929,0.98523 4.23495,0.98117 5.86802,-0.0145 4.06629,-2.47915 2.60738,-10.51465 -2.44679,-13.47659 -3.67334,-2.15272 -7.28613,-2.17002 -10.83075,-0.0519 -5.06708,3.02791 -6.6292,10.78502 -2.70383,13.42654 1.63122,1.0977 3.28439,1.12982 5.99294,0.11641 z M 255.56342,451.7317 c 1.67347,-1.0965 1.82299,-2.26646 0.92018,-7.20045 -1.13146,-6.1836 -1.12078,-6.29776 0.44999,-4.811 2.65361,2.51168 4.97273,2.80552 6.90355,0.8747 1.36092,-1.36092 1.5904,-3.16376 0.63731,-5.00683 -1.0245,-1.98117 -6.74328,-7.01169 -8.51263,-7.48813 -2.34433,-0.63126 -4.7631,-0.14618 -6.38888,1.28128 -2.37934,2.08909 -2.64636,3.00497 -2.364,8.1085 0.30117,5.4434 1.54212,11.95551 2.53281,13.29148 1.47802,1.99312 3.68136,2.35284 5.82167,0.95045 z m 97.80707,1.7e-4 c 2.04925,-1.05971 2.37057,-2.53566 2.37728,-10.9197 0.007,-8.44784 -0.31154,-9.67628 -3.04798,-11.76347 -1.86762,-1.4245 -5.18041,-1.71088 -7.19198,-0.62173 -1.64624,0.89135 -6.9027,7.23248 -7.35915,8.87772 -0.71449,2.5753 1.15385,5.27344 3.65162,5.27344 1.30367,0 3.30677,-0.68442 3.32742,-1.13692 0.006,-0.12665 0.53865,-0.84551 1.18416,-1.59746 l 1.17365,-1.36719 -0.0869,5.27344 c -0.0478,2.90039 0.0503,5.68108 0.2179,6.1793 0.36025,1.07066 2.40003,2.41092 3.67241,2.41299 0.49407,8e-4 1.43077,-0.27388 2.08156,-0.61042 z"
       id="path14"
       transform="scale(0.26458333)" /><path
       style="fill:#666666;stroke-width:0.390625"
       d="m 298.31217,515.54401 c -1.85873,-0.62835 -3.58561,-2.36719 -3.58561,-3.61045 0,-1.58685 2.44029,-2.53905 6.53507,-2.54998 3.63014,-0.01 6.18017,0.77657 6.57736,2.02801 0.31086,0.97941 -0.8091,2.57044 -2.51093,3.56706 -1.48377,0.86892 -5.2259,1.17047 -7.01589,0.56536 z"
       id="path15"
       transform="scale(0.26458333)" /><path
       style="fill:#333333;stroke-width:0.390625"
       d="m 298.04688,536.86553 c -0.42969,-0.10873 -1.38497,-0.38635 -2.12285,-0.61694 l -1.3416,-0.41924 1.92753,-0.97411 c 1.06015,-0.53576 2.57648,-1.48488 3.36962,-2.10916 l 1.44208,-1.13504 1.87823,1.437 c 1.03303,0.79035 2.58136,1.74022 3.44074,2.11083 l 1.5625,0.67383 -1.5625,0.47975 c -1.67894,0.5155 -7.31006,0.87791 -8.59375,0.55308 z"
       id="path16"
       transform="scale(0.26458333)" /><path
       style="fill:#333333;stroke-width:0.390625"
       d="m 297.5084,514.95707 c -1.66223,-0.81887 -2.88452,-2.70719 -2.3721,-3.66465 0.5594,-1.04525 2.74009,-1.57939 6.39275,-1.56583 5.60719,0.0208 7.27608,1.30169 5.08647,3.90389 -1.66326,1.97667 -6.38992,2.66518 -9.10712,1.32659 z"
       id="path17"
       transform="scale(0.26458333)" /><path
       style="fill:#800000;stroke-width:0.390625"
       d="m 296.28906,536.16314 c -1.26496,-0.45907 -1.3022,-0.517 -0.49798,-0.77477 0.47806,-0.15323 1.92375,-0.98281 3.21265,-1.8435 l 2.34346,-1.56491 1.71813,1.1821 c 0.94497,0.65016 1.82837,1.07186 1.96312,0.93711 0.13475,-0.13475 0.245,-0.0404 0.245,0.20961 0,0.25003 0.57129,0.69145 1.26953,0.98092 l 1.26953,0.52631 -2.07001,0.45137 c -2.68013,0.58441 -7.70867,0.52896 -9.45343,-0.10424 z"
       id="path19"
       transform="scale(0.26458333)" /></g></svg>
